<svg width="24" height="24" viewBox="0 0 24 24" fill="none" xmlns="http://www.w3.org/2000/svg">
<path fill-rule="evenodd" clip-rule="evenodd" d="M20 11.75C19.8376 11.7507 19.6795 11.698 19.55 11.6L18.75 11.0003V19C18.7474 19.1981 18.6676 19.3874 18.5275 19.5275C18.3874 19.6676 18.1981 19.7474 18 19.75H14H10H6C5.80189 19.7474 5.61263 19.6676 5.47253 19.5275C5.33244 19.3874 5.25259 19.1981 5.25 19V11.0003L4.45 11.6C4.29087 11.7193 4.09085 11.7706 3.89393 11.7425C3.69702 11.7143 3.51935 11.6091 3.4 11.45C3.28065 11.2909 3.22941 11.0908 3.25754 10.8939C3.28567 10.697 3.39087 10.5193 3.55 10.4L5.54839 8.90121L5.55163 8.89878L11.55 4.4C11.6798 4.30263 11.8377 4.25 12 4.25C12.1623 4.25 12.3202 4.30263 12.45 4.4L18.4486 8.89894L18.4514 8.90104L20.45 10.4C20.5952 10.5179 20.6911 10.6859 20.7189 10.8709C20.7466 11.0559 20.7042 11.2446 20.6 11.4C20.5363 11.503 20.4482 11.5888 20.3436 11.6498C20.239 11.7108 20.121 11.7452 20 11.75ZM10.75 18.25H13.25V12.75H10.75V18.25ZM14.75 18.25V12C14.7474 11.8019 14.6676 11.6126 14.5275 11.4725C14.3874 11.3324 14.1981 11.2526 14 11.25H10C9.80189 11.2526 9.61263 11.3324 9.47253 11.4725C9.33244 11.6126 9.25259 11.8019 9.25 12V18.25H6.75V9.87576L12 5.94L17.25 9.87576V18.25H14.75Z" fill="white"/>
</svg>
