<svg width="24" height="24" viewBox="0 0 24 24" fill="none" xmlns="http://www.w3.org/2000/svg">
<path fill-rule="evenodd" clip-rule="evenodd" d="M9.53334 14.3232C10.2159 14.9212 11.0926 15.2506 12 15.25C12.9074 15.2506 13.7841 14.9212 14.4667 14.3232C15.1492 13.7253 15.5911 12.8996 15.71 12H19.25V17.28C19.25 17.6115 19.1183 17.9295 18.8839 18.1639C18.6494 18.3983 18.3315 18.53 18 18.53H5.99997C5.83326 18.53 5.66823 18.4967 5.51458 18.4321C5.36094 18.3674 5.22178 18.2726 5.10531 18.1533C4.98883 18.0341 4.89739 17.8927 4.83637 17.7376C4.77534 17.5824 4.74597 17.4167 4.74997 17.25V12H8.29C8.40889 12.8996 8.85078 13.7253 9.53334 14.3232ZM3.24997 11.3411C3.24545 11.3042 3.24367 11.2669 3.2447 11.2295C3.24838 11.095 3.28821 10.9639 3.36 10.85L7.09 4.85001C7.24314 4.58216 7.46668 4.36135 7.73639 4.21151C8.0061 4.06168 8.31168 3.98853 8.62 4.00001H15.38C15.7095 4.00092 16.032 4.09539 16.31 4.27242C16.5879 4.44945 16.8099 4.70177 16.95 5.00001L20.5091 10.7293C20.5163 10.7359 20.5233 10.7427 20.5303 10.7497C20.671 10.8903 20.75 11.0811 20.75 11.28V17.28C20.7421 18.0041 20.4489 18.6959 19.934 19.2052C19.4191 19.7144 18.7241 20 18 20H5.99997C5.63883 20 5.28124 19.9289 4.94759 19.7907C4.61394 19.6525 4.31079 19.4499 4.05543 19.1945C3.80006 18.9392 3.5975 18.636 3.4593 18.3024C3.3211 17.9687 3.24997 17.6111 3.24997 17.25V11.3411ZM9 10.53H5.35L8.39 5.61001C8.41274 5.56859 8.44594 5.53386 8.4863 5.50929C8.52666 5.48473 8.57276 5.47118 8.62 5.47001H15.39C15.49 5.47001 15.57 5.53001 15.65 5.67001L18.65 10.53H15C14.8011 10.53 14.6103 10.609 14.4697 10.7497C14.329 10.8903 14.25 11.0811 14.25 11.28V11.5C14.25 12.0967 14.0129 12.669 13.591 13.091C13.169 13.513 12.5967 13.75 12 13.75C11.4033 13.75 10.831 13.513 10.409 13.091C9.98705 12.669 9.75 12.0967 9.75 11.5V11.28C9.75 11.0811 9.67098 10.8903 9.53033 10.7497C9.38968 10.609 9.19891 10.53 9 10.53Z" fill="white"/>
</svg>
