<svg width="24" height="25" viewBox="0 0 24 25" fill="none" xmlns="http://www.w3.org/2000/svg">
<path d="M20.5312 14.1562L17.0312 8.125C16.0625 6.46875 13.9375 5.90625 12.2812 6.84375C11.625 7.25 11.125 7.8125 10.8438 8.46875C10.4375 6.96875 9.09375 5.875 7.5 5.875C5.5625 5.875 4 7.46875 4 9.375V16.375C4 18.3125 5.5625 19.875 7.5 19.875C9.40625 19.875 11 18.3125 11 16.375V11.5625C11 11.5938 11 11.5938 11 11.625L14.5 17.6562C15.4375 19.3125 17.5625 19.875 19.25 18.9062C20.9062 17.9688 21.4688 15.8438 20.5312 14.1562ZM9.5 12.875H5.5V9.375C5.5 6.75 9.5 6.75 9.5 9.375V12.875ZM12.2812 10.875C10.9688 8.59375 14.4375 6.59375 15.75 8.875L17.125 11.25L13.6562 13.25L12.2812 10.875Z" fill="white"/>
</svg>
