<svg width="24" height="24" viewBox="0 0 24 24" fill="none" xmlns="http://www.w3.org/2000/svg">
<path fill-rule="evenodd" clip-rule="evenodd" d="M4.62 8.43002C4.74091 8.47783 4.86998 8.50161 5 8.50002C5.13001 8.50161 5.25909 8.47783 5.38 8.43002C5.49949 8.37204 5.61052 8.29802 5.71 8.21002C5.80268 8.11658 5.876 8.00576 5.92577 7.88392C5.97553 7.76209 6.00076 7.63163 6 7.50002C5.99631 7.23525 5.89273 6.98165 5.71 6.79002C5.61489 6.69898 5.50275 6.62761 5.38 6.58002C5.13654 6.48 4.86346 6.48 4.62 6.58002C4.49635 6.62583 4.38387 6.69742 4.29 6.79002C4.10726 6.98165 4.00368 7.23525 4 7.50002C3.99924 7.63163 4.02446 7.76209 4.07423 7.88392C4.12399 8.00576 4.19732 8.11658 4.29 8.21002C4.38948 8.29802 4.5005 8.37204 4.62 8.43002ZM8.00001 8.25H19C19.1989 8.25 19.3897 8.17098 19.5303 8.03033C19.671 7.88968 19.75 7.69891 19.75 7.5C19.75 7.30109 19.671 7.11032 19.5303 6.96967C19.3897 6.82902 19.1989 6.75 19 6.75H8.00001C7.8011 6.75 7.61033 6.82902 7.46968 6.96967C7.32903 7.11032 7.25001 7.30109 7.25001 7.5C7.25001 7.69891 7.32903 7.88968 7.46968 8.03033C7.61033 8.17098 7.8011 8.25 8.00001 8.25ZM8.00001 12.75H19C19.1989 12.75 19.3897 12.671 19.5303 12.5303C19.671 12.3897 19.75 12.1989 19.75 12C19.75 11.8011 19.671 11.6103 19.5303 11.4697C19.3897 11.329 19.1989 11.25 19 11.25H8.00001C7.8011 11.25 7.61033 11.329 7.46968 11.4697C7.32903 11.6103 7.25001 11.8011 7.25001 12C7.25001 12.1989 7.32903 12.3897 7.46968 12.5303C7.61033 12.671 7.8011 12.75 8.00001 12.75ZM19 17.25H8.00001C7.8011 17.25 7.61033 17.171 7.46968 17.0303C7.32903 16.8897 7.25001 16.6989 7.25001 16.5C7.25001 16.3011 7.32903 16.1103 7.46968 15.9697C7.61033 15.829 7.8011 15.75 8.00001 15.75H19C19.1989 15.75 19.3897 15.829 19.5303 15.9697C19.671 16.1103 19.75 16.3011 19.75 16.5C19.75 16.6989 19.671 16.8897 19.5303 17.0303C19.3897 17.171 19.1989 17.25 19 17.25ZM5 13C4.86932 12.9984 4.74022 12.9713 4.62 12.92C4.49881 12.8694 4.3872 12.7984 4.29 12.71C4.19732 12.6166 4.12399 12.5058 4.07423 12.3839C4.02446 12.2621 3.99924 12.1316 4 12C4.00368 11.7353 4.10726 11.4817 4.29 11.29C4.3872 11.2017 4.49881 11.1307 4.62 11.08C4.80102 10.9961 5.00301 10.9682 5.2 11L5.38 11.06L5.56 11.15C5.61239 11.1869 5.66248 11.227 5.71 11.27C5.89747 11.4667 6.00142 11.7283 6 12C6 12.2652 5.89464 12.5196 5.7071 12.7071C5.51957 12.8947 5.26521 13 5 13ZM4.62 17.43C4.74091 17.4778 4.86999 17.5016 5 17.5C5.13161 17.5008 5.26207 17.4756 5.38391 17.4258C5.50574 17.376 5.61656 17.3027 5.71 17.21C5.79833 17.1128 5.86936 17.0012 5.92 16.88C5.97291 16.7603 6.00023 16.6309 6.00023 16.5C6.00023 16.3691 5.97291 16.2397 5.92 16.12C5.86936 15.9988 5.79833 15.8872 5.71 15.79C5.6149 15.699 5.50275 15.6276 5.38 15.58C5.19789 15.5034 4.99718 15.4825 4.80319 15.5199C4.6092 15.5573 4.43062 15.6513 4.29 15.79C4.20167 15.8872 4.13064 15.9988 4.08 16.12C4.02709 16.2397 3.99977 16.3691 3.99977 16.5C3.99977 16.6309 4.02709 16.7603 4.08 16.88C4.13064 17.0012 4.20167 17.1128 4.29 17.21C4.38948 17.298 4.50051 17.372 4.62 17.43Z" fill="white"/>
</svg>
